<svg xmlns="http://www.w3.org/2000/svg" viewBox="0 0 64 64" role="img" aria-label="Quiz">
<defs>
<linearGradient id="bquiz" x1="0" y1="0" x2="0" y2="1"><stop offset="0" stop-color="#69BDED"/><stop offset="1" stop-color="#247FB4"/></linearGradient>
<radialGradient id="hquiz" cx=".3" cy=".2" r=".7"><stop offset="0" stop-color="#fff" stop-opacity=".55"/><stop offset="1" stop-color="#fff" stop-opacity="0"/></radialGradient>
<filter id="squiz" x="-20%" y="-20%" width="140%" height="150%"><feGaussianBlur in="SourceAlpha" stdDeviation="2.2"/><feOffset dy="3"/><feComponentTransfer><feFuncA type="linear" slope=".28"/></feComponentTransfer><feMerge><feMergeNode/><feMergeNode in="SourceGraphic"/></feMerge></filter>
</defs>
<g filter="url(#squiz)">
<rect x="8" y="12" width="48" height="46" rx="16" fill="#1D658F"/>
<rect x="8" y="8" width="48" height="46" rx="16" fill="url(#bquiz)"/>
<rect x="8" y="8" width="48" height="46" rx="16" fill="url(#hquiz)"/>
<rect x="11" y="10.5" width="42" height="18" rx="12" fill="#fff" opacity=".18"/>
</g>
<g transform="translate(16 15) scale(1)" fill="none" stroke="#fff" stroke-width="2.1" stroke-linecap="round" stroke-linejoin="round" opacity=".97"><rect x="4" y="5" width="24" height="18" rx="3"/><path d="M12 27h8M16 23v4"/><path d="M13 11.5a3 3 0 1 1 4.5 2.6c-1 .5-1.5 1-1.5 2v.4"/><circle cx="16" cy="19.5" r=".8"/></g>
</svg>
