<svg xmlns="http://www.w3.org/2000/svg" viewBox="0 0 64 64" role="img" aria-label="Yoga">
<defs>
<linearGradient id="byoga" x1="0" y1="0" x2="0" y2="1"><stop offset="0" stop-color="#66CA9A"/><stop offset="1" stop-color="#218D59"/></linearGradient>
<radialGradient id="hyoga" cx=".3" cy=".2" r=".7"><stop offset="0" stop-color="#fff" stop-opacity=".55"/><stop offset="1" stop-color="#fff" stop-opacity="0"/></radialGradient>
<filter id="syoga" x="-20%" y="-20%" width="140%" height="150%"><feGaussianBlur in="SourceAlpha" stdDeviation="2.2"/><feOffset dy="3"/><feComponentTransfer><feFuncA type="linear" slope=".28"/></feComponentTransfer><feMerge><feMergeNode/><feMergeNode in="SourceGraphic"/></feMerge></filter>
</defs>
<g filter="url(#syoga)">
<rect x="8" y="12" width="48" height="46" rx="16" fill="#1A7047"/>
<rect x="8" y="8" width="48" height="46" rx="16" fill="url(#byoga)"/>
<rect x="8" y="8" width="48" height="46" rx="16" fill="url(#hyoga)"/>
<rect x="11" y="10.5" width="42" height="18" rx="12" fill="#fff" opacity=".18"/>
</g>
<g transform="translate(16 15) scale(1)" fill="none" stroke="#fff" stroke-width="2.1" stroke-linecap="round" stroke-linejoin="round" opacity=".97"><circle cx="16" cy="6" r="2.5"/><path d="M16 9v8"/><path d="M16 17l-7 5M16 17l7 5"/><path d="M4 27h24"/><path d="M9 22 7 27M23 22l2 5"/><path d="M11 12l5 2 5-2"/></g>
</svg>
